<mxfile host="app.diagrams.net" modified="2023-03-15T15:46:09.279Z" agent="5.0 (Windows NT 10.0; Win64; x64) AppleWebKit/537.36 (KHTML, like Gecko) Chrome/111.0.0.0 Safari/537.36" etag="rHPk2DeyYF6Dhxr2zT9I" version="17.2.4" type="github">
  <diagram name="Page-1" id="e7e014a7-5840-1c2e-5031-d8a46d1fe8dd">
    <mxGraphModel dx="1422" dy="762" grid="1" gridSize="10" guides="1" tooltips="1" connect="1" arrows="1" fold="1" page="1" pageScale="1" pageWidth="1169" pageHeight="826" background="none" math="0" shadow="0">
      <root>
        <mxCell id="0" />
        <mxCell id="1" parent="0" />
        <mxCell id="2" value="USER" style="swimlane;whiteSpace=wrap" parent="1" vertex="1">
          <mxGeometry x="164.5" y="128" width="285.5" height="682" as="geometry" />
        </mxCell>
        <mxCell id="5" value="" style="ellipse;shape=startState;fillColor=#000000;strokeColor=#ff0000;" parent="2" vertex="1">
          <mxGeometry x="100" y="40" width="30" height="30" as="geometry" />
        </mxCell>
        <mxCell id="6" value="" style="edgeStyle=elbowEdgeStyle;elbow=horizontal;verticalAlign=bottom;endArrow=open;endSize=8;strokeColor=#FF0000;endFill=1;rounded=0" parent="2" source="5" target="7" edge="1">
          <mxGeometry x="100" y="40" as="geometry">
            <mxPoint x="115" y="110" as="targetPoint" />
          </mxGeometry>
        </mxCell>
        <mxCell id="7" value="Open app" style="rounded=1;" parent="2" vertex="1">
          <mxGeometry x="60" y="110" width="110" height="50" as="geometry" />
        </mxCell>
        <mxCell id="8" value="Login" style="rounded=1;" parent="2" vertex="1">
          <mxGeometry x="60" y="192" width="110" height="50" as="geometry" />
        </mxCell>
        <mxCell id="9" value="" style="endArrow=open;strokeColor=#FF0000;endFill=1;rounded=0" parent="2" source="7" target="8" edge="1">
          <mxGeometry relative="1" as="geometry" />
        </mxCell>
        <mxCell id="10" value="Search for an app" style="rounded=1;" parent="2" vertex="1">
          <mxGeometry x="60" y="260" width="110" height="50" as="geometry" />
        </mxCell>
        <mxCell id="djAZyC1WePscJLeGROtB-55" value="" style="endArrow=classic;html=1;rounded=0;entryX=0;entryY=0.75;entryDx=0;entryDy=0;" edge="1" parent="2" target="djAZyC1WePscJLeGROtB-58">
          <mxGeometry width="50" height="50" relative="1" as="geometry">
            <mxPoint x="85.5" y="312" as="sourcePoint" />
            <mxPoint x="87.5" y="392" as="targetPoint" />
          </mxGeometry>
        </mxCell>
        <mxCell id="djAZyC1WePscJLeGROtB-58" value="" style="whiteSpace=wrap;strokeColor=#FF0000;fillColor=#FF0000;rotation=90;" vertex="1" parent="2">
          <mxGeometry x="137.5" y="252" width="5" height="224.14" as="geometry" />
        </mxCell>
        <mxCell id="djAZyC1WePscJLeGROtB-60" value="" style="endArrow=classic;html=1;rounded=0;exitX=1;exitY=0.5;exitDx=0;exitDy=0;" edge="1" parent="2" source="djAZyC1WePscJLeGROtB-53">
          <mxGeometry width="50" height="50" relative="1" as="geometry">
            <mxPoint x="335.5" y="362" as="sourcePoint" />
            <mxPoint x="195.5" y="362" as="targetPoint" />
            <Array as="points">
              <mxPoint x="635.5" y="127" />
              <mxPoint x="635.5" y="312" />
              <mxPoint x="195.5" y="312" />
            </Array>
          </mxGeometry>
        </mxCell>
        <mxCell id="djAZyC1WePscJLeGROtB-61" value="" style="endArrow=classic;html=1;rounded=0;exitX=0;exitY=0.5;exitDx=0;exitDy=0;" edge="1" parent="2" source="djAZyC1WePscJLeGROtB-58">
          <mxGeometry width="50" height="50" relative="1" as="geometry">
            <mxPoint x="135.5" y="402" as="sourcePoint" />
            <mxPoint x="140.5" y="422" as="targetPoint" />
          </mxGeometry>
        </mxCell>
        <mxCell id="djAZyC1WePscJLeGROtB-74" value="Search for an app" style="rounded=1;" vertex="1" parent="2">
          <mxGeometry x="85" y="422" width="110" height="50" as="geometry" />
        </mxCell>
        <mxCell id="djAZyC1WePscJLeGROtB-112" value="" style="endArrow=classic;html=1;rounded=0;" edge="1" parent="2" source="djAZyC1WePscJLeGROtB-111">
          <mxGeometry width="50" height="50" relative="1" as="geometry">
            <mxPoint x="215.5" y="622" as="sourcePoint" />
            <mxPoint x="235.5" y="612" as="targetPoint" />
            <Array as="points">
              <mxPoint x="475.5" y="552" />
              <mxPoint x="475.5" y="612" />
            </Array>
          </mxGeometry>
        </mxCell>
        <mxCell id="djAZyC1WePscJLeGROtB-113" value="Exit app" style="rounded=1;whiteSpace=wrap;html=1;" vertex="1" parent="2">
          <mxGeometry x="150" y="600" width="85.5" height="30" as="geometry" />
        </mxCell>
        <mxCell id="38" value="" style="ellipse;shape=endState;fillColor=#000000;strokeColor=#ff0000" parent="2" vertex="1">
          <mxGeometry x="45.5" y="600" width="30" height="30" as="geometry" />
        </mxCell>
        <mxCell id="djAZyC1WePscJLeGROtB-114" value="" style="endArrow=classic;html=1;rounded=0;exitX=0;exitY=0.5;exitDx=0;exitDy=0;entryX=1;entryY=0.5;entryDx=0;entryDy=0;" edge="1" parent="2" source="djAZyC1WePscJLeGROtB-113" target="38">
          <mxGeometry width="50" height="50" relative="1" as="geometry">
            <mxPoint x="105.5" y="582" as="sourcePoint" />
            <mxPoint x="155.5" y="532" as="targetPoint" />
          </mxGeometry>
        </mxCell>
        <mxCell id="djAZyC1WePscJLeGROtB-116" value="Login Successful" style="text;html=1;resizable=0;autosize=1;align=center;verticalAlign=middle;points=[];fillColor=none;strokeColor=none;rounded=0;" vertex="1" parent="2">
          <mxGeometry x="195" y="152" width="110" height="20" as="geometry" />
        </mxCell>
        <mxCell id="3" value="PLAYSTORE" style="swimlane;whiteSpace=wrap" parent="1" vertex="1">
          <mxGeometry x="450" y="128" width="480" height="682" as="geometry" />
        </mxCell>
        <mxCell id="djAZyC1WePscJLeGROtB-44" value="" style="rhombus;whiteSpace=wrap;html=1;rounded=0;" vertex="1" parent="3">
          <mxGeometry x="35.5" y="152" width="34.5" height="30" as="geometry" />
        </mxCell>
        <mxCell id="25" value="" style="shape=line;strokeWidth=6;strokeColor=#ff0000;rotation=90" parent="3" vertex="1">
          <mxGeometry x="59.84" y="152" width="145.66" height="15" as="geometry" />
        </mxCell>
        <mxCell id="djAZyC1WePscJLeGROtB-48" value="" style="endArrow=classic;html=1;rounded=0;exitX=1;exitY=0.5;exitDx=0;exitDy=0;entryX=0.551;entryY=0.578;entryDx=0;entryDy=0;entryPerimeter=0;" edge="1" parent="3" source="djAZyC1WePscJLeGROtB-44" target="25">
          <mxGeometry width="50" height="50" relative="1" as="geometry">
            <mxPoint x="65.5" y="242" as="sourcePoint" />
            <mxPoint x="115.5" y="192" as="targetPoint" />
          </mxGeometry>
        </mxCell>
        <mxCell id="djAZyC1WePscJLeGROtB-50" value="" style="endArrow=classic;html=1;rounded=0;exitX=0.11;exitY=0.234;exitDx=0;exitDy=0;exitPerimeter=0;" edge="1" parent="3">
          <mxGeometry width="50" height="50" relative="1" as="geometry">
            <mxPoint x="134.49500000000012" y="212.00430000000006" as="sourcePoint" />
            <mxPoint x="205.5" y="212" as="targetPoint" />
          </mxGeometry>
        </mxCell>
        <mxCell id="djAZyC1WePscJLeGROtB-51" value="Allow search" style="rounded=1;" vertex="1" parent="3">
          <mxGeometry x="205.5" y="192" width="110" height="50" as="geometry" />
        </mxCell>
        <mxCell id="djAZyC1WePscJLeGROtB-52" value="" style="endArrow=classic;html=1;rounded=0;exitX=0.11;exitY=0.234;exitDx=0;exitDy=0;exitPerimeter=0;" edge="1" parent="3">
          <mxGeometry width="50" height="50" relative="1" as="geometry">
            <mxPoint x="134.49500000000012" y="124.00430000000006" as="sourcePoint" />
            <mxPoint x="205.5" y="124" as="targetPoint" />
          </mxGeometry>
        </mxCell>
        <mxCell id="djAZyC1WePscJLeGROtB-53" value="Show suggested &#xa;apps" style="rounded=1;" vertex="1" parent="3">
          <mxGeometry x="205.5" y="102" width="110" height="50" as="geometry" />
        </mxCell>
        <mxCell id="djAZyC1WePscJLeGROtB-76" value="" style="shape=line;strokeWidth=6;strokeColor=#ff0000;rotation=90" vertex="1" parent="3">
          <mxGeometry x="-81.5" y="427" width="221.63" height="15" as="geometry" />
        </mxCell>
        <mxCell id="djAZyC1WePscJLeGROtB-77" value="" style="endArrow=classic;html=1;rounded=0;entryX=0;entryY=0.5;entryDx=0;entryDy=0;" edge="1" parent="3" target="djAZyC1WePscJLeGROtB-78">
          <mxGeometry width="50" height="50" relative="1" as="geometry">
            <mxPoint x="25.5" y="359" as="sourcePoint" />
            <mxPoint x="75.5" y="354" as="targetPoint" />
          </mxGeometry>
        </mxCell>
        <mxCell id="djAZyC1WePscJLeGROtB-78" value="Click Install" style="rounded=1;" vertex="1" parent="3">
          <mxGeometry x="75.5" y="334" width="110" height="50" as="geometry" />
        </mxCell>
        <mxCell id="djAZyC1WePscJLeGROtB-79" value="" style="endArrow=classic;html=1;rounded=0;" edge="1" parent="3">
          <mxGeometry width="50" height="50" relative="1" as="geometry">
            <mxPoint x="26.25" y="440" as="sourcePoint" />
            <mxPoint x="79.25" y="440" as="targetPoint" />
          </mxGeometry>
        </mxCell>
        <mxCell id="djAZyC1WePscJLeGROtB-81" value="View details" style="rounded=1;" vertex="1" parent="3">
          <mxGeometry x="79.25" y="482" width="110" height="50" as="geometry" />
        </mxCell>
        <mxCell id="djAZyC1WePscJLeGROtB-82" value="" style="endArrow=classic;html=1;rounded=0;entryX=0;entryY=0.5;entryDx=0;entryDy=0;" edge="1" target="djAZyC1WePscJLeGROtB-81" parent="3">
          <mxGeometry width="50" height="50" relative="1" as="geometry">
            <mxPoint x="26.25" y="507.5" as="sourcePoint" />
            <mxPoint x="-365.25" y="374" as="targetPoint" />
          </mxGeometry>
        </mxCell>
        <mxCell id="djAZyC1WePscJLeGROtB-83" value="" style="endArrow=classic;html=1;rounded=0;exitX=1;exitY=0.5;exitDx=0;exitDy=0;entryX=0;entryY=0.5;entryDx=0;entryDy=0;" edge="1" parent="3" source="djAZyC1WePscJLeGROtB-78" target="djAZyC1WePscJLeGROtB-84">
          <mxGeometry width="50" height="50" relative="1" as="geometry">
            <mxPoint x="235.5" y="394" as="sourcePoint" />
            <mxPoint x="235.5" y="359" as="targetPoint" />
          </mxGeometry>
        </mxCell>
        <mxCell id="djAZyC1WePscJLeGROtB-84" value="&amp;nbsp; &amp;nbsp;Request Space" style="shape=step;perimeter=stepPerimeter;whiteSpace=wrap;html=1;fixedSize=1;rounded=0;size=20;" vertex="1" parent="3">
          <mxGeometry x="245.5" y="334" width="120" height="48" as="geometry" />
        </mxCell>
        <mxCell id="djAZyC1WePscJLeGROtB-89" value="" style="shape=line;strokeWidth=6;strokeColor=#ff0000;rotation=90" vertex="1" parent="3">
          <mxGeometry x="189.25" y="432" width="84.81" height="15" as="geometry" />
        </mxCell>
        <mxCell id="djAZyC1WePscJLeGROtB-90" value="" style="endArrow=classic;html=1;rounded=0;exitX=0.25;exitY=0.5;exitDx=0;exitDy=0;exitPerimeter=0;" edge="1" parent="3" source="djAZyC1WePscJLeGROtB-89">
          <mxGeometry width="50" height="50" relative="1" as="geometry">
            <mxPoint x="259.25" y="462" as="sourcePoint" />
            <mxPoint x="289.25" y="418" as="targetPoint" />
          </mxGeometry>
        </mxCell>
        <mxCell id="djAZyC1WePscJLeGROtB-91" value="" style="endArrow=classic;html=1;rounded=0;exitX=0.86;exitY=0.26;exitDx=0;exitDy=0;exitPerimeter=0;" edge="1" parent="3" source="djAZyC1WePscJLeGROtB-89">
          <mxGeometry width="50" height="50" relative="1" as="geometry">
            <mxPoint x="259.25" y="492" as="sourcePoint" />
            <mxPoint x="289.25" y="470" as="targetPoint" />
          </mxGeometry>
        </mxCell>
        <mxCell id="djAZyC1WePscJLeGROtB-80" value="Comment" style="rounded=1;" vertex="1" parent="3">
          <mxGeometry x="289.25" y="459" width="110" height="33" as="geometry" />
        </mxCell>
        <mxCell id="djAZyC1WePscJLeGROtB-92" value="Rate" style="rounded=1;" vertex="1" parent="3">
          <mxGeometry x="289.25" y="402" width="110" height="33" as="geometry" />
        </mxCell>
        <mxCell id="djAZyC1WePscJLeGROtB-93" value="Review app" style="rounded=1;" vertex="1" parent="3">
          <mxGeometry x="79.25" y="423" width="110" height="33" as="geometry" />
        </mxCell>
        <mxCell id="djAZyC1WePscJLeGROtB-94" value="" style="endArrow=classic;html=1;rounded=0;exitX=1;exitY=0.5;exitDx=0;exitDy=0;" edge="1" parent="3" source="djAZyC1WePscJLeGROtB-93">
          <mxGeometry width="50" height="50" relative="1" as="geometry">
            <mxPoint x="209.25" y="512" as="sourcePoint" />
            <mxPoint x="229.25" y="440" as="targetPoint" />
          </mxGeometry>
        </mxCell>
        <mxCell id="djAZyC1WePscJLeGROtB-103" value="" style="shape=line;strokeWidth=6;strokeColor=#ff0000;rotation=90" vertex="1" parent="3">
          <mxGeometry x="394.63" y="436.38" width="94.06" height="15" as="geometry" />
        </mxCell>
        <mxCell id="djAZyC1WePscJLeGROtB-106" value="" style="endArrow=classic;html=1;rounded=0;exitX=1;exitY=0.5;exitDx=0;exitDy=0;entryX=0.25;entryY=0.5;entryDx=0;entryDy=0;entryPerimeter=0;" edge="1" parent="3" source="djAZyC1WePscJLeGROtB-92" target="djAZyC1WePscJLeGROtB-103">
          <mxGeometry width="50" height="50" relative="1" as="geometry">
            <mxPoint x="305.5" y="562" as="sourcePoint" />
            <mxPoint x="435.5" y="419" as="targetPoint" />
          </mxGeometry>
        </mxCell>
        <mxCell id="djAZyC1WePscJLeGROtB-107" value="" style="endArrow=classic;html=1;rounded=0;exitX=1;exitY=0.5;exitDx=0;exitDy=0;entryX=0.82;entryY=0.377;entryDx=0;entryDy=0;entryPerimeter=0;" edge="1" parent="3" source="djAZyC1WePscJLeGROtB-80" target="djAZyC1WePscJLeGROtB-103">
          <mxGeometry width="50" height="50" relative="1" as="geometry">
            <mxPoint x="385.5" y="562" as="sourcePoint" />
            <mxPoint x="435.5" y="476" as="targetPoint" />
          </mxGeometry>
        </mxCell>
        <mxCell id="djAZyC1WePscJLeGROtB-110" value="" style="endArrow=classic;html=1;rounded=0;exitX=0;exitY=0.5;exitDx=0;exitDy=0;" edge="1" parent="3" source="djAZyC1WePscJLeGROtB-98">
          <mxGeometry width="50" height="50" relative="1" as="geometry">
            <mxPoint x="545.5" y="582" as="sourcePoint" />
            <mxPoint x="355.5" y="582" as="targetPoint" />
          </mxGeometry>
        </mxCell>
        <mxCell id="djAZyC1WePscJLeGROtB-111" value="" style="shape=line;strokeWidth=6;strokeColor=#ff0000;rotation=90" vertex="1" parent="3">
          <mxGeometry x="309.82000000000005" y="542" width="84.81" height="15" as="geometry" />
        </mxCell>
        <mxCell id="4" value="MOBILE" style="swimlane;whiteSpace=wrap" parent="1" vertex="1">
          <mxGeometry x="930" y="128" width="230" height="682" as="geometry" />
        </mxCell>
        <mxCell id="djAZyC1WePscJLeGROtB-87" value="Approve&lt;br&gt;Space" style="shape=dataStorage;whiteSpace=wrap;html=1;fixedSize=1;rounded=0;size=20;" vertex="1" parent="4">
          <mxGeometry x="70" y="330" width="100" height="52" as="geometry" />
        </mxCell>
        <mxCell id="djAZyC1WePscJLeGROtB-98" value="Install on device" style="rounded=1;whiteSpace=wrap;html=1;" vertex="1" parent="4">
          <mxGeometry x="65" y="552" width="120" height="60" as="geometry" />
        </mxCell>
        <mxCell id="djAZyC1WePscJLeGROtB-95" value="Start Download" style="rounded=1;" vertex="1" parent="4">
          <mxGeometry x="70" y="451.38" width="110" height="50" as="geometry" />
        </mxCell>
        <mxCell id="djAZyC1WePscJLeGROtB-108" value="" style="endArrow=classic;html=1;rounded=0;exitX=0.5;exitY=1;exitDx=0;exitDy=0;entryX=0.445;entryY=-0.048;entryDx=0;entryDy=0;entryPerimeter=0;" edge="1" parent="4" source="djAZyC1WePscJLeGROtB-87" target="djAZyC1WePscJLeGROtB-95">
          <mxGeometry width="50" height="50" relative="1" as="geometry">
            <mxPoint x="110" y="452" as="sourcePoint" />
            <mxPoint x="160" y="402" as="targetPoint" />
          </mxGeometry>
        </mxCell>
        <mxCell id="djAZyC1WePscJLeGROtB-109" value="" style="endArrow=classic;html=1;rounded=0;exitX=0.5;exitY=1;exitDx=0;exitDy=0;entryX=0.5;entryY=0;entryDx=0;entryDy=0;" edge="1" parent="4" source="djAZyC1WePscJLeGROtB-95" target="djAZyC1WePscJLeGROtB-98">
          <mxGeometry width="50" height="50" relative="1" as="geometry">
            <mxPoint x="60" y="562" as="sourcePoint" />
            <mxPoint x="110" y="512" as="targetPoint" />
          </mxGeometry>
        </mxCell>
        <mxCell id="djAZyC1WePscJLeGROtB-54" value="" style="endArrow=classic;html=1;rounded=0;exitX=0.5;exitY=1;exitDx=0;exitDy=0;entryX=1;entryY=0.5;entryDx=0;entryDy=0;" edge="1" parent="1" source="djAZyC1WePscJLeGROtB-51" target="10">
          <mxGeometry width="50" height="50" relative="1" as="geometry">
            <mxPoint x="500" y="510" as="sourcePoint" />
            <mxPoint x="550" y="460" as="targetPoint" />
            <Array as="points">
              <mxPoint x="710" y="413" />
            </Array>
          </mxGeometry>
        </mxCell>
        <mxCell id="djAZyC1WePscJLeGROtB-97" value="" style="endArrow=classic;html=1;rounded=0;exitX=0.608;exitY=0.244;exitDx=0;exitDy=0;exitPerimeter=0;" edge="1" parent="1" source="djAZyC1WePscJLeGROtB-103">
          <mxGeometry width="50" height="50" relative="1" as="geometry">
            <mxPoint x="910" y="770" as="sourcePoint" />
            <mxPoint x="800" y="660" as="targetPoint" />
            <Array as="points">
              <mxPoint x="910" y="582" />
              <mxPoint x="910" y="660" />
            </Array>
          </mxGeometry>
        </mxCell>
        <mxCell id="djAZyC1WePscJLeGROtB-43" value="" style="endArrow=classic;html=1;rounded=0;entryX=0;entryY=0.5;entryDx=0;entryDy=0;exitX=1;exitY=0.25;exitDx=0;exitDy=0;" edge="1" parent="1" source="8" target="djAZyC1WePscJLeGROtB-44">
          <mxGeometry width="50" height="50" relative="1" as="geometry">
            <mxPoint x="170" y="267" as="sourcePoint" />
            <mxPoint x="480" y="345" as="targetPoint" />
            <Array as="points">
              <mxPoint x="360" y="333" />
              <mxPoint x="360" y="295" />
            </Array>
          </mxGeometry>
        </mxCell>
        <mxCell id="djAZyC1WePscJLeGROtB-75" value="" style="endArrow=classic;html=1;rounded=0;exitX=1;exitY=0.5;exitDx=0;exitDy=0;entryX=0.561;entryY=0.421;entryDx=0;entryDy=0;entryPerimeter=0;" edge="1" parent="1" source="djAZyC1WePscJLeGROtB-74" target="djAZyC1WePscJLeGROtB-76">
          <mxGeometry width="50" height="50" relative="1" as="geometry">
            <mxPoint x="410" y="630" as="sourcePoint" />
            <mxPoint x="470" y="605" as="targetPoint" />
          </mxGeometry>
        </mxCell>
        <mxCell id="djAZyC1WePscJLeGROtB-85" value="" style="endArrow=classic;html=1;rounded=0;exitX=1;exitY=0.5;exitDx=0;exitDy=0;entryX=0;entryY=0.5;entryDx=0;entryDy=0;" edge="1" parent="1" source="djAZyC1WePscJLeGROtB-84" target="djAZyC1WePscJLeGROtB-87">
          <mxGeometry width="50" height="50" relative="1" as="geometry">
            <mxPoint x="940" y="492" as="sourcePoint" />
            <mxPoint x="900" y="486" as="targetPoint" />
          </mxGeometry>
        </mxCell>
        <mxCell id="djAZyC1WePscJLeGROtB-115" value="" style="endArrow=classic;html=1;rounded=0;exitX=0.5;exitY=1;exitDx=0;exitDy=0;entryX=1;entryY=0.75;entryDx=0;entryDy=0;" edge="1" parent="1" source="djAZyC1WePscJLeGROtB-44" target="8">
          <mxGeometry width="50" height="50" relative="1" as="geometry">
            <mxPoint x="380" y="380" as="sourcePoint" />
            <mxPoint x="430" y="330" as="targetPoint" />
            <Array as="points">
              <mxPoint x="503" y="360" />
            </Array>
          </mxGeometry>
        </mxCell>
      </root>
    </mxGraphModel>
  </diagram>
</mxfile>
